<svg width="25" height="25" viewBox="0 0 25 25" fill="none" xmlns="http://www.w3.org/2000/svg">
<path opacity="0.5" d="M6.85693 13.5L17.8569 13.5C18.4092 13.5 18.8569 13.0523 18.8569 12.5C18.8569 11.9477 18.4092 11.5 17.8569 11.5L6.85693 11.5C6.30465 11.5 5.85693 11.9477 5.85693 12.5C5.85693 13.0523 6.30465 13.5 6.85693 13.5Z" fill="#7239EA"/>
<path d="M16.2913 13.0657L12.107 17.25C11.6928 17.6642 11.6928 18.3358 12.107 18.75C12.5212 19.1642 13.1928 19.1642 13.607 18.75L19.1499 13.2071C19.5404 12.8166 19.5404 12.1834 19.1499 11.7929L13.607 6.24999C13.1928 5.83578 12.5212 5.83578 12.107 6.24999C11.6928 6.6642 11.6928 7.33578 12.107 7.74999L16.2913 11.9343C16.6037 12.2467 16.6037 12.7533 16.2913 13.0657Z" fill="#7239EA"/>
</svg>
