<svg width="217" height="38" viewBox="0 0 217 38" fill="none" xmlns="http://www.w3.org/2000/svg">
<g clip-path="url(#clip0_113_597)">
<path d="M48.2002 9H53.2041C58.8068 9 61.3302 11.8275 61.3302 17.8681C61.3302 23.4374 59.0634 27.2074 53.2041 27.2074H48.2002V9ZM50.8091 24.9369H53.1186C57.0105 24.9369 58.6785 22.8377 58.6785 18.1251C58.6785 12.9842 56.6256 11.2277 53.033 11.2277H50.8091V24.9369Z" fill="white"/>
<path d="M75.1872 26.008C74.1608 26.7791 72.7066 27.3789 70.4827 27.3789C66.2913 27.3789 64.0674 25.1512 64.0674 19.9674C64.0674 14.955 66.8473 12.6416 70.3116 12.6416C73.7759 12.6416 75.6577 14.8693 75.6577 18.2966C75.6577 19.1106 75.6149 19.9674 75.5294 20.7814H66.5907C66.7618 23.9088 68.0449 25.2369 70.7821 25.2369C71.9796 25.2369 73.1343 24.8085 74.0325 24.0802L75.1872 26.008ZM66.6335 18.8536H73.1343C73.1771 18.6393 73.1771 18.2538 73.1771 18.1681C73.1771 15.9404 72.2362 14.7408 70.1405 14.7408C68.3442 14.7408 66.7618 15.9404 66.6335 18.8536Z" fill="white"/>
<path d="M82.3294 20.9097C82.7999 22.452 83.0993 23.523 83.3559 24.7226H83.4414C83.698 23.5659 83.9974 22.452 84.4679 20.9097L86.9484 12.8984H89.5573L84.8528 27.1645H81.9445L77.0261 12.8984H79.8061L82.3294 20.9097Z" fill="white"/>
<path d="M92.1235 27.1646V9H102.003V11.2277H94.7324V17.3968H101.105V19.6674H94.7324V27.2074H92.1235V27.1646Z" fill="white"/>
<path d="M113.422 17.1399V23.3519C113.422 24.5086 113.764 25.194 114.705 25.194H115.09V27.0362C114.748 27.2076 114.363 27.2932 114.021 27.2932C112.866 27.3789 111.84 26.6935 111.412 25.6224H111.327C110.685 26.3936 109.573 27.4218 107.264 27.4218C104.612 27.4218 103.115 25.5368 103.115 23.6089C103.115 20.3958 106.152 18.8536 111.027 18.9821V17.5683C111.027 15.4691 110.001 14.8265 108.29 14.8265C107.05 14.7837 105.895 15.4263 105.296 16.4973L103.457 15.0836C104.569 13.4984 106.408 12.5559 108.376 12.6416C111.54 12.6845 113.422 14.0125 113.422 17.1399ZM110.984 20.9099C107.862 20.7386 105.596 21.5526 105.596 23.3947C105.596 24.5086 106.408 25.4082 107.862 25.4082C109.103 25.4082 110.3 24.7656 110.984 23.7374V20.9099Z" fill="white"/>
<path d="M123.43 12.6416C125.697 12.6416 127.108 13.4984 127.75 14.3124L126.039 16.1117C125.355 15.2977 124.371 14.8693 123.345 14.8693C121.249 14.8693 119.838 16.2403 119.838 19.9674C119.838 23.6946 121.121 25.2369 123.345 25.2369C124.371 25.2797 125.355 24.8085 125.996 24.0373L127.622 25.7081C126.98 26.4793 125.74 27.4646 123.131 27.4646C119.538 27.4646 117.229 25.4082 117.229 20.2673C117.229 15.1264 119.838 12.6416 123.43 12.6416Z" fill="white"/>
<path d="M130.829 23.1376V14.9121H128.819V13.2841L130.829 12.77L131.642 9.17139H133.353V12.8986H137.159V14.9121H133.353V23.0947C133.353 24.5085 134.08 25.1083 135.234 25.1083C136.004 25.1511 136.731 24.9797 137.373 24.5513L138.057 26.5648C137.544 26.9076 136.56 27.2931 134.636 27.2931C132.283 27.2931 130.829 26.0508 130.829 23.1376Z" fill="white"/>
<path d="M139.725 20.0959C139.725 15.6833 141.436 12.6416 145.884 12.6416C150.332 12.6416 151.914 15.5548 151.914 19.9674C151.914 24.38 150.203 27.4218 145.755 27.4218C141.308 27.4218 139.725 24.4657 139.725 20.0959ZM145.884 25.2797C148.364 25.2797 149.262 23.6089 149.262 20.1388C149.262 16.5401 148.236 14.7837 145.755 14.7837C143.36 14.7837 142.377 16.4545 142.377 19.9674C142.334 23.4804 143.403 25.2797 145.884 25.2797Z" fill="white"/>
<path d="M162.777 15.3832C162.264 15.2546 161.708 15.169 161.152 15.169C159.826 15.169 158.415 15.7259 157.731 16.7969V27.1645H155.207V12.8984H157.175L157.731 14.6549H157.816C158.543 13.3696 159.955 12.5985 161.409 12.6413C161.879 12.6413 162.35 12.6842 162.777 12.7699V15.3832Z" fill="white"/>
<path d="M163.889 30.1207C164.317 30.292 164.787 30.3777 165.301 30.4206C166.926 30.4206 167.867 29.5209 168.337 27.5502L163.119 12.9414H165.942L168.038 19.2819C168.808 21.5525 169.235 23.1804 169.535 24.4228H169.62C169.962 22.6663 170.39 20.9527 170.946 19.2819L172.913 12.9414H175.565L170.604 28.1071C169.749 30.7633 168.337 32.6483 165.258 32.6483C164.616 32.6483 164.018 32.5626 163.419 32.3484L163.889 30.1207Z" fill="white"/>
<path d="M16.8081 0.128418C14.413 2.01342 12.5312 4.45536 11.3765 7.28287C8.12604 10.4531 6.11592 14.6944 5.68823 19.1927C5.64546 19.7925 5.60269 20.4351 5.60269 21.0777V21.4204C5.30331 22.5771 5.08947 23.7338 5.00393 24.9334C4.70455 24.5478 4.44794 24.1194 4.19133 23.7338C2.22398 20.5208 1.06922 16.8793 0.940918 13.1093C3.25042 6.04048 9.45187 0.985239 16.8081 0.128418Z" fill="url(#paint0_linear_113_597)"/>
<path d="M27.0298 1.79932C26.3455 1.75648 25.6612 1.71364 24.9341 1.71364C22.2825 1.71364 19.6736 2.22773 17.2785 3.25592C15.0973 4.24126 13.0872 5.56933 11.3765 7.28298C12.5312 4.45547 14.413 1.97069 16.8081 0.128523C17.5351 0.042841 18.2622 0 18.9465 0C20.9566 0 22.924 0.299887 24.8058 0.899662C25.5756 1.15671 26.3027 1.4566 27.0298 1.79932Z" fill="url(#paint1_linear_113_597)"/>
<path d="M5.85937 32.7306C5.30338 32.1736 4.74738 31.6167 4.23416 31.0169C0.171144 26.0045 -1.06914 19.2785 0.940979 13.1094C1.11205 16.8794 2.22404 20.5209 4.19139 23.734C4.448 24.1624 4.70462 24.5479 5.004 24.9335C4.96123 25.4904 4.91846 26.0474 4.91846 26.6043C4.91846 28.7035 5.26061 30.7599 5.85937 32.7306Z" fill="#DC00FF"/>
<path d="M14.7552 37.5286C11.4192 36.7575 8.3399 35.1295 5.90209 32.7304C5.26056 30.7598 4.96118 28.7034 4.96118 26.6042C4.96118 26.0472 5.00395 25.4903 5.04672 24.9334C5.13226 23.7338 5.3461 22.5771 5.64548 21.4204C5.73102 27.9751 9.1525 34.0585 14.7552 37.5286Z" fill="url(#paint2_linear_113_597)"/>
<path d="M11.3765 7.2832L11.291 7.45457C10.6067 9.29673 10.2218 11.2246 10.179 13.1953C9.87964 13.538 9.53749 13.8379 9.23811 14.2235L9.19534 14.3091C7.52737 16.4083 6.32985 18.8503 5.60278 21.4636V21.1209C5.60278 20.4782 5.64555 19.8356 5.68832 19.2359C6.11601 14.6947 8.12613 10.4534 11.3765 7.2832Z" fill="url(#paint3_linear_113_597)"/>
<path d="M35.7118 12.3813C35.7118 13.1096 35.6263 13.8379 35.498 14.5662C32.0337 10.9247 27.2436 8.82548 22.2397 8.82548C21.2132 8.48275 20.144 8.35423 19.0748 8.35423C17.7918 8.35423 16.5515 8.56843 15.3539 8.99684C14.5413 9.29673 13.7287 9.72514 13.0017 10.2392C11.9752 10.9675 11.0771 11.8672 10.35 12.8954C10.3072 12.9811 10.2217 13.0667 10.1789 13.1524C10.0079 11.6958 10.6066 9.21105 11.2909 7.41173L11.3765 7.24036C13.0872 5.56956 15.0973 4.19865 17.2785 3.25614C19.7163 2.22796 22.3252 1.71387 24.9341 1.71387C25.6184 1.71387 26.3455 1.75671 27.0298 1.84239C30.494 3.47035 33.3595 6.08365 35.2841 9.38241V9.42525C35.5835 10.4106 35.7118 11.3959 35.7118 12.3813Z" fill="url(#paint4_linear_113_597)"/>
<path d="M37.9358 18.9786C37.9358 23.6483 36.2251 28.1466 33.103 31.6167C24.1644 36.3292 13.1728 34.3157 6.45816 26.7328C5.94493 24.9763 5.64555 23.177 5.60278 21.3777C6.28708 18.7644 7.52737 16.3225 9.19535 14.2232L9.23811 14.1376C9.45196 13.8805 9.87964 13.4521 10.179 13.1094L10.1363 13.1951C10.0935 13.2807 10.0079 13.4093 9.96518 13.4949C6.97138 18.5502 8.63935 25.062 13.6433 28.0609C15.0119 28.8749 16.5943 29.389 18.1768 29.5175C21.5127 32.2165 26.1317 32.6877 29.9381 30.7599C35.0703 28.1037 37.2515 21.8918 34.8993 16.6223C35.1559 15.9369 35.3697 15.2514 35.498 14.5231C36.3962 15.4656 37.2088 16.5367 37.8931 17.6505C37.9358 18.1218 37.9358 18.5502 37.9358 18.9786Z" fill="url(#paint5_linear_113_597)"/>
<path d="M33.1028 31.6598C28.4838 36.8435 21.4698 39.0713 14.7123 37.529C10.7349 35.0442 7.8266 31.2313 6.45801 26.7759C13.1727 34.3587 24.1642 36.3723 33.1028 31.6598Z" fill="url(#paint6_linear_113_597)"/>
<path d="M34.8992 16.6651C33.7872 19.4497 31.6488 21.6775 28.9116 22.877C30.7079 18.293 29.1255 13.1092 25.1052 10.2817C29.3393 10.2817 33.1457 12.8094 34.8992 16.6651Z" fill="url(#paint7_linear_113_597)"/>
<path d="M35.8402 21.1209C35.8402 25.1908 33.5735 28.9608 29.9381 30.8029C26.1317 32.7736 21.5127 32.2595 18.1768 29.5606C18.4761 29.6034 18.7755 29.6034 19.0749 29.6034C19.5026 29.6034 19.8875 29.5606 20.3152 29.5177C24.2071 29.0465 27.5003 26.476 28.9544 22.8345C31.6916 21.635 33.8301 19.4072 34.942 16.6226C35.5408 18.0363 35.8402 19.5786 35.8402 21.1209Z" fill="url(#paint8_linear_113_597)"/>
<path d="M35.498 14.5662C35.3697 15.2945 35.1559 15.9799 34.8993 16.6654C33.1457 12.8097 29.3393 10.3249 25.148 10.2821C24.2499 9.63946 23.309 9.16821 22.2397 8.86832C27.2437 8.82548 32.0338 10.9247 35.498 14.5662Z" fill="#D400FF"/>
<path d="M35.498 14.566C35.8401 12.8523 35.7546 11.0958 35.3269 9.42504V9.33936L35.3697 9.42504C36.8238 11.9527 37.6792 14.7802 37.893 17.6934C37.2087 16.5795 36.3961 15.5085 35.498 14.566Z" fill="#8C00EA"/>
<path d="M190.107 23.359C190.592 23.4457 191.004 23.7013 191.342 24.126C191.68 24.5507 191.849 25.0317 191.849 25.569C191.849 26.0283 191.728 26.4443 191.485 26.817C191.251 27.181 190.909 27.4713 190.458 27.688C190.007 27.896 189.483 28 188.885 28H185.271V18.965H188.716C189.331 18.965 189.86 19.069 190.302 19.277C190.744 19.485 191.078 19.7667 191.303 20.122C191.528 20.4687 191.641 20.8587 191.641 21.292C191.641 21.812 191.502 22.2453 191.225 22.592C190.948 22.9387 190.575 23.1943 190.107 23.359ZM186.753 22.761H188.586C189.071 22.761 189.448 22.6527 189.717 22.436C189.994 22.2107 190.133 21.89 190.133 21.474C190.133 21.0667 189.994 20.7503 189.717 20.525C189.448 20.291 189.071 20.174 188.586 20.174H186.753V22.761ZM188.755 26.791C189.258 26.791 189.652 26.6697 189.938 26.427C190.224 26.1843 190.367 25.8463 190.367 25.413C190.367 24.971 190.215 24.62 189.912 24.36C189.609 24.1 189.206 23.97 188.703 23.97H186.753V26.791H188.755ZM194.941 20.161V22.813H198.061V24.022H194.941V26.791H198.451V28H193.459V18.952H198.451V20.161H194.941ZM206.114 18.965V20.174H203.709V28H202.227V20.174H199.809V18.965H206.114ZM213.062 26.154H209.279L208.629 28H207.082L210.319 18.952H212.035L215.272 28H213.712L213.062 26.154ZM212.646 24.945L211.177 20.746L209.695 24.945H212.646Z" fill="#B5B5C3"/>
</g>
<defs>
<linearGradient id="paint0_linear_113_597" x1="1.33315" y1="23.0221" x2="12.2526" y2="-0.890656" gradientUnits="userSpaceOnUse">
<stop stop-color="#CA00FF"/>
<stop offset="1" stop-color="#AB00FF"/>
</linearGradient>
<linearGradient id="paint1_linear_113_597" x1="11.3679" y1="3.64145" x2="27.0469" y2="3.64145" gradientUnits="userSpaceOnUse">
<stop stop-color="#C730FF"/>
<stop offset="1" stop-color="#AD55FF"/>
</linearGradient>
<linearGradient id="paint2_linear_113_597" x1="10.6653" y1="36.4622" x2="6.75253" y2="22.3067" gradientUnits="userSpaceOnUse">
<stop stop-color="#E200FF"/>
<stop offset="1" stop-color="#EF02FE"/>
</linearGradient>
<linearGradient id="paint3_linear_113_597" x1="10.9844" y1="7.07804" x2="6.25725" y2="19.6895" gradientUnits="userSpaceOnUse">
<stop stop-color="#AD01FF"/>
<stop offset="1" stop-color="#9800FF"/>
</linearGradient>
<linearGradient id="paint4_linear_113_597" x1="10.1432" y1="8.13994" x2="35.7161" y2="8.13994" gradientUnits="userSpaceOnUse">
<stop stop-color="#C300FF"/>
<stop offset="1" stop-color="#A802EA"/>
</linearGradient>
<linearGradient id="paint5_linear_113_597" x1="7.46758" y1="17.8645" x2="33.475" y2="26.2997" gradientUnits="userSpaceOnUse">
<stop stop-color="#C800FF"/>
<stop offset="0.02" stop-color="#C400FF"/>
<stop offset="0.13" stop-color="#B300FD"/>
<stop offset="0.27" stop-color="#A800FD"/>
<stop offset="0.46" stop-color="#A100FC"/>
<stop offset="1" stop-color="#9F00FC"/>
</linearGradient>
<linearGradient id="paint6_linear_113_597" x1="6.45801" y1="32.3912" x2="33.1242" y2="32.3912" gradientUnits="userSpaceOnUse">
<stop stop-color="#AA00FF"/>
<stop offset="1" stop-color="#C402FF"/>
</linearGradient>
<linearGradient id="paint7_linear_113_597" x1="25.1181" y1="16.5558" x2="34.895" y2="16.5558" gradientUnits="userSpaceOnUse">
<stop stop-color="#CA5CFF"/>
<stop offset="1" stop-color="#B947FF"/>
</linearGradient>
<linearGradient id="paint8_linear_113_597" x1="19.6415" y1="32.01" x2="38.427" y2="19.9149" gradientUnits="userSpaceOnUse">
<stop stop-color="#BF01FF"/>
<stop offset="1" stop-color="#A502FF"/>
</linearGradient>
<clipPath id="clip0_113_597">
<rect width="217" height="38" fill="white"/>
</clipPath>
</defs>
</svg>
