<svg width="355" height="63" viewBox="0 0 355 63" fill="none" xmlns="http://www.w3.org/2000/svg">
<g clip-path="url(#clip0_113_2735)">
<path d="M79.2725 14.9211H87.5022C96.7166 14.9211 100.867 19.6088 100.867 29.6234C100.867 38.8568 97.1387 45.1071 87.5022 45.1071H79.2725V14.9211ZM83.5632 41.3427H87.3615C93.7624 41.3427 96.5056 37.8624 96.5056 30.0496C96.5056 21.5265 93.1293 18.6144 87.2208 18.6144H83.5632V41.3427Z" fill="#181C32"/>
<path d="M123.657 43.1184C121.969 44.3968 119.577 45.3912 115.92 45.3912C109.026 45.3912 105.369 41.6978 105.369 33.1037C105.369 24.7937 109.941 20.9583 115.638 20.9583C121.336 20.9583 124.431 24.6516 124.431 30.3337C124.431 31.6832 124.36 33.1037 124.22 34.4532H109.519C109.8 39.6381 111.91 41.8399 116.412 41.8399C118.381 41.8399 120.281 41.1296 121.758 39.9222L123.657 43.1184ZM109.589 31.257H120.281C120.351 30.9019 120.351 30.2627 120.351 30.1206C120.351 26.4273 118.803 24.4385 115.357 24.4385C112.403 24.4385 109.8 26.4273 109.589 31.257Z" fill="#181C32"/>
<path d="M135.403 34.6663C136.176 37.2232 136.669 38.9988 137.091 40.9876H137.232C137.654 39.0699 138.146 37.2232 138.92 34.6663L142.999 21.3844H147.29L139.553 45.0361H134.77L126.681 21.3844H131.253L135.403 34.6663Z" fill="#181C32"/>
<path d="M151.511 45.036V14.9211H167.76V18.6144H155.802V28.8421H166.283V32.6065H155.802V45.1071H151.511V45.036Z" fill="#181C32"/>
<path d="M186.54 28.416V38.7147C186.54 40.6324 187.102 41.7689 188.65 41.7689H189.283V44.823C188.72 45.1071 188.087 45.2491 187.524 45.2491C185.625 45.3912 183.937 44.2548 183.234 42.4791H183.093C182.038 43.7576 180.209 45.4622 176.411 45.4622C172.05 45.4622 169.588 42.3371 169.588 39.1409C169.588 33.8139 174.582 31.257 182.601 31.4701V29.1262C182.601 25.646 180.913 24.5806 178.099 24.5806C176.059 24.5095 174.16 25.5749 173.175 27.3506L170.151 25.0067C171.979 22.3788 175.004 20.8162 178.24 20.9583C183.445 21.0293 186.54 23.2311 186.54 28.416ZM182.53 34.6663C177.396 34.3822 173.668 35.7316 173.668 38.7858C173.668 40.6324 175.004 42.124 177.396 42.124C179.435 42.124 181.405 41.0586 182.53 39.354V34.6663Z" fill="#181C32"/>
<path d="M202.999 20.9583C206.727 20.9583 209.048 22.3788 210.103 23.7283L207.29 26.7114C206.164 25.3619 204.546 24.6516 202.858 24.6516C199.412 24.6516 197.091 26.9244 197.091 33.1037C197.091 39.283 199.201 41.8399 202.858 41.8399C204.546 41.9109 206.164 41.1296 207.219 39.8512L209.892 42.6212C208.837 43.8996 206.797 45.5332 202.507 45.5332C196.598 45.5332 192.8 42.124 192.8 33.6009C192.8 25.0778 197.091 20.9583 202.999 20.9583Z" fill="#181C32"/>
<path d="M215.168 38.3596V24.7226H211.862V22.0236L215.168 21.1713L216.504 15.2052H219.318V21.3844H225.578V24.7226H219.318V38.2886C219.318 40.6324 220.514 41.6268 222.413 41.6268C223.679 41.6978 224.875 41.4137 225.93 40.7035L227.055 44.0417C226.211 44.6099 224.593 45.2491 221.428 45.2491C217.559 45.2491 215.168 43.1894 215.168 38.3596Z" fill="#181C32"/>
<path d="M229.798 33.3168C229.798 26.0011 232.612 20.9583 239.927 20.9583C247.243 20.9583 249.845 25.788 249.845 33.1037C249.845 40.4194 247.031 45.4622 239.716 45.4622C232.401 45.4622 229.798 40.5614 229.798 33.3168ZM239.927 41.9109C244.007 41.9109 245.484 39.1409 245.484 33.3878C245.484 27.4216 243.796 24.5096 239.716 24.5096C235.777 24.5096 234.159 27.2796 234.159 33.1037C234.089 38.9278 235.848 41.9109 239.927 41.9109Z" fill="#181C32"/>
<path d="M267.711 25.5039C266.867 25.2908 265.953 25.1488 265.038 25.1488C262.858 25.1488 260.537 26.0721 259.411 27.8478V45.0361H255.261V21.3844H258.497L259.411 24.2965H259.552C260.748 22.1657 263.069 20.8872 265.46 20.9583C266.234 20.9583 267.008 21.0293 267.711 21.1713V25.5039Z" fill="#181C32"/>
<path d="M269.54 49.9368C270.243 50.2209 271.017 50.363 271.861 50.434C274.534 50.434 276.082 48.9425 276.855 45.6753L268.274 21.4554H272.916L276.363 31.9673C277.629 35.7316 278.332 38.4306 278.825 40.4904H278.966C279.528 37.5783 280.232 34.7373 281.146 31.9673L284.382 21.4554H288.743L280.583 46.5986C279.177 51.0022 276.855 54.1274 271.791 54.1274C270.736 54.1274 269.751 53.9853 268.766 53.6302L269.54 49.9368Z" fill="#181C32"/>
<path d="M27.6433 0.213089C23.7043 3.33823 20.6093 7.38671 18.7102 12.0744C13.3644 17.3303 10.0584 24.3619 9.35504 31.8196C9.2847 32.814 9.21436 33.8794 9.21436 34.9448V35.513C8.72198 37.4307 8.37029 39.3484 8.22961 41.3371C7.73723 40.6979 7.31519 39.9876 6.89316 39.3484C3.65755 34.0214 1.75838 27.9842 1.54736 21.7339C5.34569 10.0147 15.5449 1.63361 27.6433 0.213089Z" fill="url(#paint0_linear_113_2735)"/>
<path d="M44.4547 2.98309C43.3292 2.91206 42.2038 2.84104 41.008 2.84104C36.647 2.84104 32.3563 3.69335 28.4173 5.39797C24.83 7.03157 21.524 9.23337 18.7104 12.0744C20.6096 7.3867 23.7045 3.26719 27.6436 0.213078C28.8393 0.0710259 30.0351 0 31.1605 0C34.4665 0 37.7021 0.497181 40.797 1.49154C42.0631 1.9177 43.2589 2.41488 44.4547 2.98309Z" fill="url(#paint1_linear_113_2735)"/>
<path d="M9.63652 54.2638C8.72211 53.3405 7.80769 52.4171 6.96362 51.4228C0.281376 43.1127 -1.75847 31.9617 1.54749 21.7339C1.82884 27.9842 3.65767 34.0214 6.89328 39.3484C7.31532 40.0586 7.73735 40.6979 8.22973 41.3371C8.15939 42.2604 8.08905 43.1838 8.08905 44.1071C8.08905 47.5874 8.65177 50.9966 9.63652 54.2638Z" fill="#DC00FF"/>
<path d="M24.2674 62.2187C18.7809 60.9403 13.7165 58.2413 9.70713 54.2638C8.65204 50.9966 8.15967 47.5874 8.15967 44.1071C8.15967 43.1838 8.23001 42.2604 8.30035 41.3371C8.44103 39.3484 8.79272 37.4307 9.2851 35.513C9.42578 46.3799 15.0529 56.4656 24.2674 62.2187Z" fill="url(#paint2_linear_113_2735)"/>
<path d="M18.7102 12.0744L18.5695 12.3585C17.4441 15.4126 16.811 18.6088 16.7407 21.876C16.2483 22.4442 15.6856 22.9414 15.1932 23.5806L15.1229 23.7227C12.3796 27.2029 10.4101 31.2514 9.21436 35.584V35.0158C9.21436 33.9504 9.28469 32.885 9.35503 31.8906C10.0584 24.3619 13.3644 17.3303 18.7102 12.0744Z" fill="url(#paint3_linear_113_2735)"/>
<path d="M58.7336 20.5265C58.7336 21.7339 58.5929 22.9414 58.3819 24.1488C52.6844 18.1116 44.8064 14.6313 36.5767 14.6313C34.8885 14.0631 33.13 13.8501 31.3715 13.8501C29.2614 13.8501 27.2215 14.2052 25.252 14.9154C23.9156 15.4126 22.5791 16.1229 21.3833 16.9752C19.6952 18.1826 18.2181 19.6742 17.0223 21.3788C16.952 21.5209 16.8113 21.6629 16.7409 21.805C16.4596 19.3901 17.4443 15.2706 18.5698 12.2875L18.7105 12.0034C21.524 9.23337 24.83 6.96054 28.4173 5.39797C32.4266 3.69335 36.7173 2.84103 41.008 2.84103C42.1335 2.84103 43.3292 2.91206 44.4547 3.05411C50.1522 5.7531 54.8649 10.0857 58.0302 15.5547V15.6257C58.5226 17.2593 58.7336 18.8929 58.7336 20.5265Z" fill="url(#paint4_linear_113_2735)"/>
<path d="M62.391 31.4645C62.391 39.2063 59.5774 46.664 54.4426 52.4171C39.7417 60.23 21.6644 56.8918 10.6211 44.3202C9.77707 41.4081 9.28469 38.425 9.21436 35.4419C10.3398 31.1094 12.3796 27.0609 15.1229 23.5806L15.1932 23.4386C15.5449 23.0124 16.2483 22.3021 16.7407 21.7339L16.6703 21.876C16.6 22.018 16.4593 22.2311 16.389 22.3732C11.4652 30.7542 14.2085 41.5502 22.4382 46.522C24.689 47.8715 27.2916 48.7238 29.8941 48.9369C35.3806 53.4115 42.9773 54.1928 49.2375 50.9966C57.6782 46.593 61.2655 36.2943 57.3969 27.5581C57.8189 26.4216 58.1706 25.2852 58.3816 24.0778C59.8587 25.6404 61.1952 27.416 62.3206 29.2627C62.391 30.044 62.391 30.7542 62.391 31.4645Z" fill="url(#paint5_linear_113_2735)"/>
<path d="M54.4425 52.4882C46.8459 61.0823 35.3102 64.7757 24.1966 62.2187C17.655 58.0992 12.872 51.7779 10.6211 44.3912C21.6644 56.9628 39.7416 60.301 54.4425 52.4882Z" fill="url(#paint6_linear_113_2735)"/>
<path d="M57.3973 27.6291C55.5685 32.2458 52.0515 35.9391 47.5498 37.9279C50.504 30.3281 47.9015 21.7339 41.2896 17.0462C48.2532 17.0462 54.5134 21.2368 57.3973 27.6291Z" fill="url(#paint7_linear_113_2735)"/>
<path d="M58.9447 35.0158C58.9447 41.7633 55.2167 48.0135 49.2379 51.0677C42.9777 54.3349 35.381 53.4825 29.8945 49.0079C30.3869 49.0789 30.8793 49.0789 31.3717 49.0789C32.0751 49.0789 32.7081 49.0079 33.4115 48.9369C39.8124 48.1556 45.2285 43.894 47.6201 37.8568C52.1218 35.8681 55.6388 32.1747 57.4676 27.5581C58.4523 29.9019 58.9447 32.4589 58.9447 35.0158Z" fill="url(#paint8_linear_113_2735)"/>
<path d="M58.3819 24.1488C58.1709 25.3563 57.8192 26.4927 57.3971 27.6291C54.5132 21.2368 48.253 17.1172 41.3597 17.0462C39.8826 15.9808 38.3351 15.1995 36.5767 14.7024C44.8064 14.6313 52.6844 18.1116 58.3819 24.1488Z" fill="#D400FF"/>
<path d="M58.3819 24.1488C58.9447 21.3078 58.804 18.3957 58.1006 15.6257V15.4837L58.1709 15.6257C60.5625 19.8162 61.9693 24.5039 62.321 29.3337C61.1955 27.487 59.8591 25.7114 58.3819 24.1488Z" fill="#8C00EA"/>
<path d="M312.659 38.2356C313.458 38.3781 314.135 38.7986 314.69 39.497C315.246 40.1955 315.524 40.9866 315.524 41.8703C315.524 42.6257 315.325 43.3099 314.926 43.9228C314.541 44.5215 313.978 44.999 313.237 45.3553C312.495 45.6974 311.633 45.8684 310.65 45.8684H304.706V31.009H310.372C311.384 31.009 312.253 31.18 312.98 31.5221C313.707 31.8642 314.256 32.3275 314.626 32.9119C314.997 33.482 315.182 34.1234 315.182 34.8361C315.182 35.6913 314.954 36.404 314.498 36.9742C314.042 37.5443 313.429 37.9648 312.659 38.2356ZM307.143 37.2521H310.158C310.956 37.2521 311.576 37.0739 312.018 36.7176C312.474 36.347 312.702 35.8196 312.702 35.1354C312.702 34.4655 312.474 33.9453 312.018 33.5747C311.576 33.1898 310.956 32.9974 310.158 32.9974H307.143V37.2521ZM310.436 43.88C311.262 43.88 311.911 43.6805 312.381 43.2814C312.852 42.8823 313.087 42.3264 313.087 41.6137C313.087 40.8868 312.837 40.3095 312.339 39.8819C311.84 39.4543 311.177 39.2405 310.35 39.2405H307.143V43.88H310.436ZM320.61 32.976V37.3376H325.742V39.326H320.61V43.88H326.383V45.8684H318.173V30.9876H326.383V32.976H320.61ZM338.985 31.009V32.9974H335.03V45.8684H332.592V32.9974H328.615V31.009H338.985ZM350.412 42.8324H344.19L343.121 45.8684H340.577L345.901 30.9876H348.723L354.047 45.8684H351.481L350.412 42.8324ZM349.728 40.844L347.312 33.9381L344.874 40.844H349.728Z" fill="#7239EA"/>
</g>
<defs>
<linearGradient id="paint0_linear_113_2735" x1="2.19245" y1="38.1684" x2="20.3907" y2="-1.36613" gradientUnits="userSpaceOnUse">
<stop stop-color="#CA00FF"/>
<stop offset="1" stop-color="#AB00FF"/>
</linearGradient>
<linearGradient id="paint1_linear_113_2735" x1="18.6964" y1="6.03713" x2="44.4828" y2="6.03713" gradientUnits="userSpaceOnUse">
<stop stop-color="#C730FF"/>
<stop offset="1" stop-color="#AD55FF"/>
</linearGradient>
<linearGradient id="paint2_linear_113_2735" x1="17.541" y1="60.4507" x2="11.0093" y2="37.0092" gradientUnits="userSpaceOnUse">
<stop stop-color="#E200FF"/>
<stop offset="1" stop-color="#EF02FE"/>
</linearGradient>
<linearGradient id="paint3_linear_113_2735" x1="18.0652" y1="11.7343" x2="10.1807" y2="32.6011" gradientUnits="userSpaceOnUse">
<stop stop-color="#AD01FF"/>
<stop offset="1" stop-color="#9800FF"/>
</linearGradient>
<linearGradient id="paint4_linear_113_2735" x1="16.6821" y1="13.4948" x2="58.7406" y2="13.4948" gradientUnits="userSpaceOnUse">
<stop stop-color="#C300FF"/>
<stop offset="1" stop-color="#A802EA"/>
</linearGradient>
<linearGradient id="paint5_linear_113_2735" x1="12.2813" y1="29.6174" x2="55.1193" y2="43.4005" gradientUnits="userSpaceOnUse">
<stop stop-color="#C800FF"/>
<stop offset="0.02" stop-color="#C400FF"/>
<stop offset="0.13" stop-color="#B300FD"/>
<stop offset="0.27" stop-color="#A800FD"/>
<stop offset="0.46" stop-color="#A100FC"/>
<stop offset="1" stop-color="#9F00FC"/>
</linearGradient>
<linearGradient id="paint6_linear_113_2735" x1="10.6211" y1="53.7009" x2="54.4777" y2="53.7009" gradientUnits="userSpaceOnUse">
<stop stop-color="#AA00FF"/>
<stop offset="1" stop-color="#C402FF"/>
</linearGradient>
<linearGradient id="paint7_linear_113_2735" x1="41.3107" y1="27.448" x2="57.3902" y2="27.448" gradientUnits="userSpaceOnUse">
<stop stop-color="#CA5CFF"/>
<stop offset="1" stop-color="#B947FF"/>
</linearGradient>
<linearGradient id="paint8_linear_113_2735" x1="32.3035" y1="53.0688" x2="63.3439" y2="33.2431" gradientUnits="userSpaceOnUse">
<stop stop-color="#BF01FF"/>
<stop offset="1" stop-color="#A502FF"/>
</linearGradient>
<clipPath id="clip0_113_2735">
<rect width="355" height="63" fill="white"/>
</clipPath>
</defs>
</svg>
