<svg width="121" height="115" viewBox="0 0 121 115" fill="none" xmlns="http://www.w3.org/2000/svg">
<g clip-path="url(#clip0_113_2718)" filter="url(#filter0_dd_113_2718)">
<path d="M99.864 46.4388L85.6804 19.0952C84.0953 16.0361 80.979 14.0337 77.5226 13.8715L46.7714 12.5037C43.315 12.3415 40.0387 14.0422 38.1616 16.9575L21.5813 42.9091C19.7226 45.8302 19.5442 49.5275 21.1477 52.5924L35.3128 79.9302C36.9105 83.0136 40.0143 84.9917 43.4706 85.1539L74.216 86.5401C77.6724 86.7024 80.9487 85.0017 82.8074 82.0805L99.3876 56.1289C101.289 53.201 101.443 49.5164 99.864 46.4388Z" fill="#7239EA"/>
</g>
<defs>
<filter id="filter0_dd_113_2718" x="-9" y="-12" width="138.993" height="139.028" filterUnits="userSpaceOnUse" color-interpolation-filters="sRGB">
<feFlood flood-opacity="0" result="BackgroundImageFix"/>
<feColorMatrix in="SourceAlpha" type="matrix" values="0 0 0 0 0 0 0 0 0 0 0 0 0 0 0 0 0 0 127 0" result="hardAlpha"/>
<feMorphology radius="1" operator="erode" in="SourceAlpha" result="effect1_dropShadow_113_2718"/>
<feOffset dy="2"/>
<feGaussianBlur stdDeviation="3"/>
<feColorMatrix type="matrix" values="0 0 0 0 0.0941176 0 0 0 0 0.109804 0 0 0 0 0.196078 0 0 0 0.1 0"/>
<feBlend mode="normal" in2="BackgroundImageFix" result="effect1_dropShadow_113_2718"/>
<feColorMatrix in="SourceAlpha" type="matrix" values="0 0 0 0 0 0 0 0 0 0 0 0 0 0 0 0 0 0 127 0" result="hardAlpha"/>
<feMorphology radius="4" operator="erode" in="SourceAlpha" result="effect2_dropShadow_113_2718"/>
<feOffset dy="8"/>
<feGaussianBlur stdDeviation="12"/>
<feColorMatrix type="matrix" values="0 0 0 0 0.0941176 0 0 0 0 0.109804 0 0 0 0 0.196078 0 0 0 0.2 0"/>
<feBlend mode="normal" in2="effect1_dropShadow_113_2718" result="effect2_dropShadow_113_2718"/>
<feBlend mode="normal" in="SourceGraphic" in2="effect2_dropShadow_113_2718" result="shape"/>
</filter>
<clipPath id="clip0_113_2718">
<rect width="78.8388" height="78.8931" fill="white" transform="translate(34.8394) rotate(17.5882)"/>
</clipPath>
</defs>
</svg>
