<svg width="24" height="24" viewBox="0 0 24 24" fill="none" xmlns="http://www.w3.org/2000/svg">
<path opacity="0.5" d="M6 13L17 13C17.5523 13 18 12.5523 18 12C18 11.4477 17.5523 11 17 11L6 11C5.44771 11 5 11.4477 5 12C5 12.5523 5.44771 13 6 13Z" fill="white"/>
<path d="M15.4344 12.5658L11.2501 16.7501C10.8359 17.1643 10.8359 17.8359 11.2501 18.2501C11.6643 18.6643 12.3359 18.6643 12.7501 18.2501L18.293 12.7072C18.6835 12.3167 18.6835 11.6835 18.293 11.293L12.7501 5.75011C12.3359 5.3359 11.6643 5.3359 11.2501 5.75011C10.8359 6.16432 10.8359 6.8359 11.2501 7.25011L15.4344 11.4344C15.7468 11.7468 15.7468 12.2534 15.4344 12.5658Z" fill="white"/>
</svg>
