<svg width="25" height="25" viewBox="0 0 25 25" fill="none" xmlns="http://www.w3.org/2000/svg">
<g clip-path="url(#clip0_113_601)">
<path d="M4.81435 0.00634766C2.16952 0.00634766 0.00488281 2.2103 0.00488281 4.90327V20.0993C0.00488281 22.7922 2.16947 24.9954 4.81435 24.9954H19.739C22.3839 24.9954 24.5477 22.7922 24.5477 20.0993V4.90327C24.5477 2.21035 22.3839 0.00634766 19.739 0.00634766H4.81435ZM6.02401 4.13005C7.29215 4.13005 8.07327 4.9777 8.09738 6.09192C8.09738 7.18155 7.2921 8.05302 5.99948 8.05302H5.97569C4.73168 8.05302 3.92763 7.1816 3.92763 6.09192C3.92763 4.97772 4.75601 4.13005 6.02398 4.13005H6.02401ZM16.9523 9.3378C19.3912 9.3378 21.2194 10.9608 21.2194 14.4487V20.9599H17.513V14.8852C17.513 13.3587 16.9766 12.3173 15.6353 12.3173C14.6113 12.3173 14.0009 13.0192 13.733 13.6973C13.6351 13.9399 13.611 14.2788 13.611 14.6181V20.9599H9.90457C9.90457 20.9599 9.95321 10.6696 9.90457 9.6041H13.6118V11.2122C14.1043 10.4384 14.9853 9.33777 16.9523 9.33777V9.3378ZM4.14625 9.60492H7.85268V20.96H4.14625V9.60492Z" fill="#F5F8FA"/>
</g>
<defs>
<clipPath id="clip0_113_601">
<rect width="24.5535" height="25" fill="white"/>
</clipPath>
</defs>
</svg>
