<svg width="389" height="69" viewBox="0 0 389 69" fill="none" xmlns="http://www.w3.org/2000/svg">
<path d="M23.2755 53.067H18.3905C18.3905 53.067 14.9869 53.2203 12.5527 54.4662C11.3396 55.0877 10.3621 55.9804 10.1787 57.2619C10.1125 57.7424 10.1441 58.2314 10.2717 58.6994C10.206 58.6091 8.43989 56.1036 7.93332 53.3052C7.754 52.4086 7.754 51.4854 7.93332 50.5889C8.49465 48.0232 10.959 45.7888 17.6923 45.5862C17.8319 45.5725 17.9661 45.5615 18.1194 45.5615H20.5975C20.8872 46.3298 21.2275 47.0781 21.6161 47.8014C22.6869 49.7863 24.106 51.5625 25.8056 53.045L23.2755 53.067Z" fill="#F5F8FA"/>
<path d="M26.7145 0.99707C22.3231 3.6534 18.6941 7.40126 16.1806 11.876C7.9112 17.7385 1.06021 27.8643 2.59908 41.81C2.70313 42.7657 2.84552 43.7268 3.03446 44.729C3.17411 45.4765 3.33566 46.2295 3.52459 46.9962C3.90342 48.5408 4.36038 50.0652 4.8937 51.5635C4.37167 50.7209 3.90253 49.8466 3.489 48.9458C2.30571 46.4235 1.41546 43.7739 0.835676 41.0488C-0.703195 33.8145 -0.497826 23.7214 7.40738 13.6065C12.2512 7.36185 19.0494 2.92199 26.7145 0.99707Z" fill="#F5F8FA"/>
<path d="M61.5581 15.3675C60.7878 14.5989 59.9809 13.8687 59.1376 13.1769C58.9295 13.0071 58.7186 12.8374 58.5078 12.6731C52.6492 8.07862 45.4164 5.58669 37.9712 5.59754C36.3216 5.5966 34.6743 5.71741 33.0425 5.95898C32.8042 5.95898 32.5633 5.95898 32.3196 5.95898C30.632 5.99518 28.9543 6.2258 27.3196 6.64627C23.3141 7.6927 19.5354 9.46741 16.1724 11.8817C18.6858 7.40701 22.3148 3.65915 26.7062 1.00283C29.5035 0.30775 32.3783 -0.0262901 35.2604 0.00885823H35.808C46.9169 0.304585 55.7723 6.59424 58.8665 10.0088L59.1102 10.2826L59.1786 10.3648C59.217 10.4113 59.2608 10.4633 59.3046 10.5208C60.0138 11.4217 61.3391 13.3056 61.5581 15.3675Z" fill="#F5F8FA"/>
<path d="M58.8721 10.0137L58.9405 10.0849L59.0282 10.1889L59.1185 10.293L58.8721 10.0137Z" fill="#F5F8FA"/>
<path d="M58.5049 12.6649C57.6834 13.908 56.0049 14.6391 54.3976 15.069C53.2007 15.381 51.9765 15.5773 50.7421 15.655H50.3669C50.3669 15.655 52.9627 14.6884 51.161 12.9962C49.2826 11.2355 45.5778 6.00008 33.0396 5.95079C37.4271 5.30208 41.8996 5.52823 46.1994 6.61618C50.6775 7.75397 54.8687 9.81416 58.5049 12.6649Z" fill="#F5F8FA"/>
<path d="M58.4311 20.6049C57.7712 20.964 57.0824 21.2672 56.3719 21.5112C54.3673 22.1684 52.2952 22.5983 50.1945 22.7927C45.271 19.6604 39.5761 17.953 33.7414 17.8597C27.9067 17.7664 22.1601 19.2909 17.1389 22.2642C16.3357 22.7407 15.5571 23.2509 14.8032 23.7949C14.9307 23.3544 15.0843 22.9219 15.2632 22.4997C16.1235 20.4702 17.5621 18.7388 19.3998 17.5214C21.2375 16.3041 23.3929 15.6547 25.5972 15.6542H50.7559C51.9903 15.5765 53.2145 15.3802 54.4114 15.0682C56.0077 14.6383 57.6972 13.9072 58.5187 12.6641C58.7295 12.8284 58.9404 12.9981 59.1485 13.1679C59.9918 13.8634 60.7987 14.5936 61.569 15.3585C61.7552 17.1711 61.1008 19.1153 58.4311 20.6049Z" fill="#F5F8FA"/>
<path d="M68.6366 39.8447C68.0043 43.6361 66.6956 47.283 64.7729 50.6114C63.8705 52.1896 62.8538 53.6997 61.7308 55.1294C55.0277 63.7219 44.7703 68.8642 33.8723 68.7301H33.3246C26.7649 68.5307 20.3866 66.53 14.8883 62.947C12.7525 61.5176 11.1534 60.0226 10.2635 58.7219C10.1358 58.2539 10.1042 57.7649 10.1704 57.2844C10.3593 56.0029 11.3314 55.1102 12.5444 54.4887C14.9787 53.2428 18.3823 53.0894 18.3823 53.0894H18.7574C18.7574 53.0894 16.1917 54.0232 17.9633 55.7482C18.8751 56.6381 20.3702 58.3167 23.3904 59.8227C26.2409 61.2383 30.4468 62.4979 36.8076 62.7909C42.243 63.0428 49.6772 60.2772 55.7889 54.8638C61.3207 51.0778 65.7531 45.8963 68.6366 39.8447Z" fill="#F5F8FA"/>
<path d="M68.7486 39.1263C68.7157 39.3645 68.6801 39.6028 68.6391 39.8437C65.7548 45.8901 61.3246 51.0674 55.7969 54.8518C57.7155 53.1552 59.4343 51.2453 60.9201 49.1591C62.2185 47.3337 63.3199 45.3759 64.2059 43.3185C66.1029 38.8763 66.9625 34.0601 66.7196 29.2359C66.5513 25.884 65.9616 22.5666 64.9644 19.362C64.7453 18.6418 64.5071 17.9107 64.2442 17.1714C65.0869 18.5547 65.8097 20.0076 66.4047 21.5142C67.9293 25.242 68.8134 29.2005 69.0197 33.2227C69.1139 35.1948 69.0231 37.1712 68.7486 39.1263Z" fill="#F5F8FA"/>
<path d="M51.7116 36.8651C49.9539 38.8921 47.8029 40.5409 45.389 41.7118C45.3483 40.7447 44.9372 39.8304 44.241 39.1581C43.5447 38.4858 42.6165 38.1069 41.6487 38.1001H25.6C24.6066 38.102 23.6175 37.9703 22.6592 37.7085C21.5715 37.4108 20.5355 36.9492 19.5869 36.3394C17.5446 35.0397 15.9762 33.1156 15.1148 30.8532C14.2535 28.5908 14.1452 26.1109 14.806 23.782C15.5618 23.2343 16.3403 22.7241 17.1417 22.2513C22.1629 19.278 27.9095 17.7535 33.7442 17.8468C39.5789 17.9401 45.2738 19.6475 50.1973 22.7798C49.4279 22.8647 48.6119 22.9359 47.733 22.9906C46.1421 23.0892 44.3787 23.1358 42.429 23.1221H25.6C24.6102 23.1292 23.663 23.5256 22.9631 24.2255C22.2632 24.9254 21.8668 25.8727 21.8596 26.8625C21.8578 27.548 22.0475 28.2204 22.4073 28.8038C22.7414 29.3511 23.2099 29.8039 23.7682 30.1193C24.3265 30.4346 24.9561 30.602 25.5973 30.6056H41.6459C43.7406 30.606 45.7934 31.1925 47.5722 32.2987C49.351 33.4049 50.7848 34.9866 51.7116 36.8651Z" fill="#F5F8FA"/>
<path d="M52.8751 41.8427C52.8751 44.8202 51.6923 47.6757 49.5869 49.7811C47.4815 51.8865 44.626 53.0693 41.6485 53.0693H25.8052C24.1057 51.5868 22.6866 49.8106 21.6158 47.8257C21.2271 47.1024 20.8868 46.3541 20.5972 45.5858H41.6512C42.641 45.5787 43.5883 45.1823 44.2882 44.4824C44.9881 43.7825 45.3845 42.8352 45.3916 41.8454C45.3916 41.8044 45.3916 41.7606 45.3916 41.7167C47.8055 40.5459 49.9565 38.897 51.7141 36.8701C52.4809 38.4154 52.8783 40.1176 52.8751 41.8427Z" fill="#F5F8FA"/>
<path d="M87.979 13.7627H95.1394C103.154 13.7627 106.788 17.807 106.788 26.4132C106.788 34.354 103.562 39.7702 95.1394 39.7702H87.979V13.7627ZM91.6893 36.5418H94.9915C100.594 36.5418 102.932 33.5298 102.932 26.8212C102.932 19.4773 99.9669 16.991 94.8464 16.991H91.6893V36.5418Z" fill="white"/>
<path d="M126.637 38.1001C125.188 39.2145 123.113 40.0661 119.884 40.0661C113.874 40.0661 110.684 36.9144 110.684 29.4939C110.684 22.3335 114.69 18.9956 119.624 18.9956C124.559 18.9956 127.267 22.1856 127.267 27.0815C127.27 28.2706 127.208 29.459 127.08 30.6412H114.32C114.542 35.1291 116.434 37.0212 120.328 37.0212C122.034 37.0308 123.69 36.4405 125.005 35.3537L126.637 38.1001ZM114.394 27.8975H123.704C123.743 27.6018 123.743 27.0459 123.743 26.8953C123.743 23.7437 122.373 21.9994 119.403 21.9994C116.804 21.9994 114.578 23.7053 114.394 27.8975Z" fill="white"/>
<path d="M136.84 30.8294C137.505 33.02 137.913 34.5753 138.285 36.2812H138.433C138.806 34.6136 139.255 33.0173 139.882 30.8294L143.441 19.3646H147.19L140.438 39.7697H136.245L129.233 19.3618H133.239L136.84 30.8294Z" fill="white"/>
<path d="M150.897 39.7708V13.7578H165.07V16.9862H154.646V25.7785H163.773V29.0069H154.646V39.7653L150.897 39.7708Z" fill="white"/>
<path d="M181.358 25.413V34.3149C181.358 35.9579 181.875 36.9491 183.173 36.9491H183.721V39.5832C183.24 39.8326 182.705 39.9605 182.163 39.9557C180.158 39.9557 178.97 38.9151 178.452 37.5433H178.305C177.376 38.655 175.78 40.1391 172.48 40.1391C168.647 40.1391 166.544 37.4693 166.544 34.6873C166.544 30.0871 170.925 27.8966 177.897 28.0828V26.0428C177.897 23.0308 176.412 22.1464 174 22.1464C171.514 22.1464 170.29 23.5155 169.696 24.5587L167.061 22.5187C167.804 21.5166 169.77 19.0303 174.074 19.0303C178.685 19.0303 181.358 20.9224 181.358 25.413ZM177.908 30.7909C173.417 30.5691 170.188 31.6808 170.188 34.3505C170.188 35.9442 171.339 37.2448 173.417 37.2448C174.306 37.2422 175.181 37.0207 175.964 36.6C176.747 36.1793 177.414 35.5722 177.908 34.8325V30.7909Z" fill="white"/>
<path d="M195.714 18.9956C198.978 18.9956 200.982 20.2196 201.908 21.3696L199.46 23.9299C198.987 23.3674 198.397 22.9161 197.73 22.608C197.063 22.2999 196.336 22.1426 195.602 22.1473C192.59 22.1473 190.594 24.1133 190.594 29.4555C190.594 34.7978 192.45 36.9884 195.602 36.9884C196.332 37.0161 197.059 36.8729 197.725 36.5701C198.391 36.2673 198.976 35.8132 199.435 35.2441L201.735 37.6181C200.807 38.7299 199.027 40.1044 195.279 40.1044C190.123 40.1044 186.82 37.1718 186.82 29.8279C186.809 22.4074 190.555 18.9956 195.714 18.9956Z" fill="white"/>
<path d="M206.322 34.0203V22.2597H203.43V19.9596L206.322 19.2176L207.51 14.0615H209.958V19.3627H215.404V22.257H209.95V33.9436C209.95 35.9453 210.99 36.8379 212.658 36.8379C214.106 36.8379 215.07 36.5039 215.7 36.0575L216.664 38.9135C215.922 39.3954 214.514 39.954 211.768 39.954C208.364 39.9567 206.322 38.1742 206.322 34.0203Z" fill="white"/>
<path d="M219.011 29.6417C219.011 23.3439 221.459 18.9956 227.839 18.9956C234.295 18.9956 236.448 23.1878 236.448 29.4555C236.448 35.7233 233.997 40.1044 227.617 40.1044C221.155 40.1044 219.011 35.9122 219.011 29.6417ZM227.839 37.0623C231.398 37.0623 232.663 34.6499 232.663 29.6691C232.663 24.5487 231.215 22.0268 227.617 22.0268C224.167 22.0268 222.795 24.4364 222.795 29.42C222.798 34.5021 224.279 37.0623 227.839 37.0623Z" fill="white"/>
<path d="M252.063 22.9225C251.311 22.7318 250.539 22.6316 249.763 22.624C247.871 22.624 245.869 23.4044 244.834 24.9625V39.7652H241.201V19.3628H244.018L244.799 21.8491H244.947C245.836 20.2062 247.655 18.9932 250.103 18.9932C250.763 18.9791 251.422 19.0407 252.069 19.1766L252.063 22.9225Z" fill="white"/>
<path d="M253.621 43.9619C254.259 44.2178 254.939 44.3561 255.626 44.3699C257.964 44.3699 259.298 43.072 259.966 40.2626L252.51 19.3618H256.554L259.566 28.4527C260.642 31.7166 261.272 34.0167 261.718 35.7965H261.866C262.165 34.2029 262.608 32.2369 263.758 28.4527L266.579 19.3618H270.363L263.276 41.0648C262.052 44.849 260.012 47.5571 255.634 47.5571C254.736 47.5712 253.843 47.4199 253 47.1108L253.621 43.9619Z" fill="white"/>
<path d="M296.181 33.0532C296.181 27.6726 283.939 28.7871 283.939 20.5861C283.939 16.5062 287.389 13.3901 292.288 13.3901C295.625 13.3901 298.073 14.6525 299.336 15.8381L297.036 18.694C295.921 17.7302 294.363 16.728 292.027 16.728C289.319 16.728 287.723 18.2504 287.723 20.326C287.723 25.7805 300.004 24.7071 300.004 32.8287C300.004 36.7251 296.849 40.1369 290.987 40.1369C286.721 40.1369 283.903 38.494 282.567 37.281L284.757 34.2032C286.127 35.3533 288.246 36.8374 291.398 36.8374C294.549 36.8374 296.181 35.1698 296.181 33.0532Z" fill="white"/>
<path d="M305.152 34.0203V22.2597H302.257V19.9596L305.152 19.2176L306.337 14.0615H308.802V19.3627H314.253V22.257H308.777V33.9436C308.777 35.9453 309.815 36.8379 311.485 36.8379C312.931 36.8379 313.895 36.5039 314.527 36.0575L315.491 38.9135C314.749 39.3954 313.339 39.954 310.592 39.954C307.192 39.9567 305.152 38.1742 305.152 34.0203Z" fill="white"/>
<path d="M318.84 19.3618H322.512V32.6449C322.512 35.6569 323.848 37.1328 326.521 37.1328C329.259 37.1328 331.044 35.4269 331.195 32.9406V19.3618H334.867V39.7669H331.855L331.26 37.727H331.113C330.332 38.6908 328.552 40.1749 325.398 40.1749C321.17 40.1749 318.906 37.9488 318.826 33.2363L318.84 19.3618Z" fill="white"/>
<path d="M352.339 11.6133H355.975V39.7703H353.193L352.487 37.8042H352.339C351.597 38.842 349.779 40.1399 347.109 40.1399C342.583 40.1399 339.579 37.1717 339.579 30.4959C339.579 22.7413 343.733 19.3295 349.037 19.3295C350.148 19.3277 351.256 19.4517 352.339 19.6992V11.6133ZM352.377 34.2801V23.0015C351.43 22.6389 350.424 22.4532 349.409 22.4538C345.551 22.4538 343.325 24.5294 343.325 30.1208C343.325 35.3234 345.516 37.095 348.037 37.095C350.187 37.0978 351.597 35.9477 352.377 34.2801Z" fill="white"/>
<path d="M364.248 11.1287C364.575 11.1202 364.9 11.179 365.204 11.3014C365.507 11.4238 365.782 11.6073 366.012 11.8404C366.241 12.0736 366.42 12.3514 366.538 12.6567C366.656 12.9619 366.71 13.2881 366.696 13.615C366.696 14.2592 366.44 14.877 365.985 15.3325C365.529 15.7879 364.911 16.0438 364.267 16.0438C363.623 16.0438 363.005 15.7879 362.55 15.3325C362.094 14.877 361.838 14.2592 361.838 13.615C361.827 13.2919 361.881 12.9698 361.997 12.668C362.113 12.3663 362.289 12.0911 362.514 11.8589C362.739 11.6267 363.008 11.4424 363.306 11.3169C363.604 11.1914 363.925 11.1274 364.248 11.1287ZM362.542 19.3625H366.214V39.7676H362.542V19.3625Z" fill="white"/>
<path d="M371.518 29.6417C371.518 23.3439 373.968 18.9956 380.348 18.9956C386.802 18.9956 388.954 23.1878 388.954 29.4555C388.954 35.7233 386.507 40.1044 380.126 40.1044C373.673 40.1044 371.518 35.9122 371.518 29.6417ZM380.348 37.0623C383.908 37.0623 385.17 34.6499 385.17 29.6691C385.17 24.5487 383.724 22.0268 380.126 22.0268C376.676 22.0268 375.302 24.4364 375.302 29.42C375.315 34.5021 376.786 37.0623 380.348 37.0623Z" fill="white"/>
<path d="M329.401 52.1439C329.401 53.2392 328.755 53.8197 327.608 53.8197H326.685V56.0103H326.225V50.6133H327.693C328.766 50.6133 329.401 51.0897 329.401 52.1439ZM326.685 51.0486V53.3953H327.624C328.547 53.3953 328.925 52.9873 328.925 52.196C328.925 51.4046 328.446 51.0486 327.57 51.0486H326.685Z" fill="white"/>
<path d="M330.135 53.9431C330.135 52.6589 330.606 51.7827 331.827 51.7827C333.049 51.7827 333.47 52.637 333.47 53.8966C333.47 55.1562 333.008 56.0543 331.778 56.0543C330.549 56.0543 330.135 55.2055 330.135 53.9431ZM331.827 55.6518C332.69 55.6518 333.013 55.1041 333.013 53.9431C333.013 52.7821 332.643 52.1989 331.781 52.1989C330.918 52.1989 330.598 52.7466 330.598 53.8966C330.598 55.0466 330.97 55.6518 331.83 55.6518H331.827Z" fill="white"/>
<path d="M336.669 52.2592L335.724 56.005H335.064L333.969 51.8594H334.437L335.061 54.2526C335.176 54.6962 335.291 55.1507 335.398 55.597H335.428C335.521 55.2137 335.606 54.8358 335.702 54.4525L336.356 51.8594H337.041L337.687 54.4579C337.78 54.8276 337.873 55.189 337.961 55.597H337.991C338.109 55.1425 338.224 54.6825 338.339 54.2526L338.96 51.8594H339.415L338.301 56.005H337.638L336.707 52.2592H336.669Z" fill="white"/>
<path d="M342.983 55.7035C342.612 55.9412 342.178 56.0624 341.737 56.0513C340.592 56.0513 339.96 55.4817 339.96 53.9127C339.96 52.3437 340.822 51.7988 341.669 51.7988C342.63 51.7988 343.131 52.4286 343.131 53.4062C343.131 53.606 343.114 53.8662 343.092 54.1126H340.415C340.477 55.2353 340.937 55.635 341.8 55.635C342.148 55.6372 342.488 55.5331 342.775 55.3366L342.983 55.7035ZM340.415 53.6964H342.668C342.668 53.5896 342.668 53.4828 342.668 53.4226C342.668 52.6531 342.337 52.215 341.606 52.215C341.061 52.2205 340.477 52.5518 340.415 53.6964Z" fill="white"/>
<path d="M346.238 52.3195C346.088 52.2756 345.932 52.2525 345.776 52.2511C345.565 52.2356 345.354 52.2837 345.17 52.3891C344.987 52.4945 344.839 52.6524 344.746 52.8426V56.0052H344.3V51.8595H344.628L344.73 52.2812H344.76C344.884 52.1261 345.042 52.0019 345.222 51.9183C345.402 51.8347 345.599 51.7939 345.798 51.7993C345.946 51.7968 346.094 51.8115 346.238 51.8431V52.3195Z" fill="white"/>
<path d="M349.752 55.7035C349.38 55.9412 348.946 56.0624 348.506 56.0513C347.361 56.0513 346.729 55.4817 346.729 53.9127C346.729 52.3437 347.591 51.7988 348.437 51.7988C349.398 51.7988 349.897 52.4286 349.897 53.4062C349.897 53.606 349.883 53.8662 349.858 54.1126H347.183C347.243 55.2353 347.706 55.635 348.569 55.635C348.916 55.6367 349.256 55.5326 349.543 55.3366L349.752 55.7035ZM347.183 53.6964H349.437C349.437 53.5896 349.437 53.4828 349.437 53.4226C349.437 52.6531 349.105 52.215 348.374 52.215C347.829 52.2205 347.243 52.5518 347.183 53.6964Z" fill="white"/>
<path d="M353.506 50.1665H353.958V56.0044H353.635L353.52 55.558H353.487C353.364 55.7321 353.199 55.8722 353.008 55.9651C352.816 56.058 352.604 56.1007 352.391 56.0892C351.439 56.0892 350.853 55.4649 350.853 54.104C350.853 52.6747 351.614 51.8669 352.86 51.8669C353.079 51.868 353.298 51.8881 353.514 51.9272L353.506 50.1665ZM353.506 54.9282V52.3653C353.291 52.3137 353.072 52.2852 352.851 52.2804C351.805 52.2804 351.307 52.8965 351.307 54.0438C351.307 55.3034 351.874 55.6867 352.46 55.6867C352.693 55.6915 352.921 55.62 353.11 55.4831C353.299 55.3462 353.438 55.1513 353.506 54.9282Z" fill="white"/>
<path d="M357.517 50.1665H357.964V52.1736H357.994C358.298 51.9399 358.673 51.818 359.056 51.8286C359.902 51.8286 360.617 52.4036 360.617 53.7891C360.617 55.1747 359.971 56.081 358.602 56.081C358.226 56.0939 357.851 56.0228 357.506 55.8729L357.517 50.1665ZM360.157 53.874C360.157 52.5898 359.533 52.2311 358.925 52.2311C358.74 52.231 358.558 52.2722 358.392 52.3519C358.226 52.4315 358.079 52.5474 357.964 52.6911V55.5307C358.2 55.6206 358.451 55.6642 358.703 55.6593C359.565 55.6648 360.16 55.0569 360.16 53.8631L360.157 53.874Z" fill="white"/>
<path d="M361.159 57.1195C361.28 57.1584 361.407 57.1796 361.534 57.1824C362.082 57.1824 362.375 56.9086 362.597 56.1885L361.113 51.8594H361.589L362.32 54.0746C362.594 54.8961 362.698 55.2356 362.813 55.597H362.843C362.912 55.3232 362.996 55.0056 363.298 54.0746L364.012 51.8594H364.472L362.994 56.3281C362.72 57.1195 362.317 57.6123 361.501 57.6123C361.361 57.613 361.222 57.5926 361.088 57.5521L361.159 57.1195Z" fill="white"/>
<path d="M370.034 54.6448C370.034 53.3277 367.443 53.6453 367.443 51.9449C367.443 51.1454 368.111 50.5375 369.051 50.5375C369.523 50.5207 369.989 50.6613 370.373 50.9373L370.099 51.3124C369.794 51.083 369.419 50.9642 369.037 50.9756C368.339 50.9756 367.922 51.3672 367.922 51.9203C367.922 53.2675 370.515 52.9663 370.515 54.6201C370.515 55.4416 369.875 56.0823 368.777 56.0823C368.181 56.1033 367.598 55.9089 367.134 55.5347L367.408 55.1678C367.801 55.4806 368.291 55.6462 368.793 55.636C369.595 55.6442 370.034 55.2061 370.034 54.6448Z" fill="white"/>
<path d="M374.171 53.0422V54.9589C374.171 55.3669 374.294 55.6571 374.612 55.6571H374.71V56.0049C374.669 56.0104 374.628 56.0104 374.587 56.0049C374.422 56.0157 374.258 55.9708 374.122 55.8775C373.985 55.7842 373.884 55.6478 373.834 55.4901H373.804C373.65 55.6792 373.455 55.8299 373.233 55.9302C373.011 56.0305 372.769 56.0776 372.525 56.0679C372.374 56.0787 372.222 56.0585 372.079 56.0086C371.936 55.9586 371.805 55.8799 371.693 55.7773C371.582 55.6748 371.492 55.5505 371.43 55.4121C371.369 55.2737 371.336 55.1241 371.334 54.9726C371.334 54.0635 372.249 53.6035 373.757 53.6254V53.1407C373.757 52.4041 373.41 52.1878 372.804 52.1878C372.606 52.1779 372.408 52.2202 372.231 52.3106C372.053 52.4009 371.903 52.536 371.794 52.7026L371.465 52.4288C371.62 52.2136 371.827 52.0408 372.066 51.9264C372.306 51.8121 372.57 51.7598 372.835 51.7744C373.672 51.8045 374.171 52.1988 374.171 53.0422ZM373.757 54.058C372.687 54.0252 371.789 54.288 371.789 54.9808C371.788 55.0851 371.809 55.1884 371.852 55.2838C371.894 55.3791 371.956 55.4645 372.033 55.5341C372.111 55.6038 372.203 55.6561 372.302 55.6877C372.401 55.7193 372.506 55.7294 372.61 55.7174C372.839 55.7137 373.064 55.6535 373.264 55.5422C373.464 55.4309 373.633 55.272 373.757 55.0794V54.058Z" fill="white"/>
<path d="M375.611 52.914C375.611 52.3362 376.096 51.7995 376.994 51.7995C377.408 51.7876 377.811 51.9301 378.125 52.1993L377.832 52.5361C377.601 52.3224 377.296 52.2065 376.981 52.213C376.326 52.213 376.058 52.5361 376.058 52.9057C376.058 53.9298 378.188 53.5054 378.188 54.9211C378.188 55.4961 377.695 56.0739 376.756 56.0739C376.241 56.091 375.738 55.913 375.349 55.5755L375.642 55.2195C375.792 55.3654 375.971 55.4796 376.167 55.5554C376.362 55.6311 376.571 55.6668 376.781 55.6604C377.419 55.6604 377.742 55.3208 377.742 54.9211C377.742 53.8888 375.611 54.3214 375.611 52.914Z" fill="white"/>
<path d="M379.486 54.9587V52.2342H378.848V51.9467L379.486 51.8536L379.609 50.7583H379.932V51.8536H381.101V52.2369H379.932V54.9067C379.932 55.4215 380.187 55.6296 380.578 55.6296C380.805 55.6458 381.032 55.5973 381.233 55.4899L381.364 55.8678C381.095 55.9939 380.799 56.0522 380.502 56.0376C379.825 56.054 379.486 55.6816 379.486 54.9587Z" fill="white"/>
<path d="M385.033 55.7035C384.662 55.9405 384.228 56.0615 383.787 56.0513C382.64 56.0513 382.01 55.4817 382.01 53.9127C382.01 52.3437 382.87 51.7988 383.716 51.7988C384.677 51.7988 385.178 52.4286 385.178 53.4062C385.178 53.606 385.162 53.8662 385.14 54.1126H382.462C382.525 55.2353 382.988 55.635 383.848 55.635C384.196 55.6368 384.537 55.5327 384.825 55.3366L385.033 55.7035ZM382.462 53.6964H384.716C384.716 53.5896 384.716 53.4828 384.716 53.4226C384.716 52.6531 384.384 52.215 383.656 52.215C383.108 52.2205 382.525 52.5518 382.462 53.6964Z" fill="white"/>
<path d="M387.84 51.7994C388.042 51.7867 388.244 51.814 388.436 51.8798C388.627 51.9456 388.803 52.0485 388.955 52.1828L388.656 52.5442C388.544 52.4335 388.41 52.347 388.263 52.29C388.116 52.2331 387.959 52.2068 387.802 52.2129C387.079 52.2129 386.586 52.6976 386.586 53.9298C386.586 55.162 387.062 55.6521 387.802 55.6521C387.955 55.6623 388.109 55.64 388.254 55.5867C388.398 55.5334 388.53 55.4502 388.64 55.3427L388.913 55.6904C388.768 55.8438 388.429 56.0656 387.769 56.0656C386.791 56.0656 386.126 55.4905 386.126 53.9982C386.126 52.4593 386.863 51.7994 387.84 51.7994Z" fill="white"/>
</svg>
