<svg width="60" height="60" viewBox="0 0 60 60" fill="none" xmlns="http://www.w3.org/2000/svg">
<circle cx="30" cy="30" r="30" fill="#7239EA" fill-opacity="0.3"/>
<circle cx="30.0001" cy="30.0001" r="19.2857" fill="#7239EA"/>
<g clip-path="url(#clip0_754_1285)">
<path d="M32.1431 30C32.1431 30.5684 31.9174 31.1134 31.5155 31.5153C31.1136 31.9171 30.5686 32.1429 30.0003 32.1429C29.432 32.1429 28.8869 31.9171 28.4851 31.5153C28.0832 31.1134 27.8574 30.5684 27.8574 30C27.8574 29.4317 28.0832 28.8867 28.4851 28.4848C28.8869 28.0829 29.432 27.8572 30.0003 27.8572C30.5686 27.8572 31.1136 28.0829 31.5155 28.4848C31.9174 28.8867 32.1431 29.4317 32.1431 30V30Z" fill="white"/>
<path fill-rule="evenodd" clip-rule="evenodd" d="M23.1431 29.9999C23.1431 29.9999 25.7145 25.2856 30.0002 25.2856C34.2859 25.2856 36.8574 29.9999 36.8574 29.9999C36.8574 29.9999 34.2859 34.7142 30.0002 34.7142C25.7145 34.7142 23.1431 29.9999 23.1431 29.9999ZM30.0002 32.9999C30.7959 32.9999 31.5589 32.6839 32.1215 32.1213C32.6841 31.5586 33.0002 30.7956 33.0002 29.9999C33.0002 29.2043 32.6841 28.4412 32.1215 27.8786C31.5589 27.316 30.7959 26.9999 30.0002 26.9999C29.2046 26.9999 28.4415 27.316 27.8789 27.8786C27.3163 28.4412 27.0002 29.2043 27.0002 29.9999C27.0002 30.7956 27.3163 31.5586 27.8789 32.1213C28.4415 32.6839 29.2046 32.9999 30.0002 32.9999V32.9999Z" fill="white"/>
</g>
<defs>
<clipPath id="clip0_754_1285">
<rect width="13.7143" height="13.7143" fill="white" transform="translate(23.1431 23.1428)"/>
</clipPath>
</defs>
</svg>
